<svg id="Lager_1" data-name="Lager 1" xmlns="http://www.w3.org/2000/svg" viewBox="0 0 101.17 97.69"><defs><style>.cls-1{fill:#e30613;}</style></defs><path class="cls-1" d="M216.8,228.51c-15-9.93-33.39-21.94-36.34-41.29-.94-6.21.37-15.95,8.17-16.65,9-.83,14.71,8.88,18.16,15.68,2.53,5,10.38,4.81,13,0,4.22-7.89,9.41-19,19.19-21,10.67-2.13,12.87,8.07,12.4,16.72-1.22,22.92-21.78,38.86-38.42,51.67-3.23,2.49-4.87,6.42-2.69,10.26,1.81,3.18,7.06,5.16,10.27,2.69,23.6-18.17,50.44-41.5,45.19-74.73-2.37-15-14.33-24.17-29.44-21.33-14.66,2.74-22.95,16-29.46,28.12h13c-5.83-11.46-15.11-22.18-28.83-23.07s-23.53,9.89-25.32,22.85c-4,29,22.45,49,43.63,63,8.07,5.35,15.59-7.63,7.57-13Z" transform="translate(-165.19 -150.05)"/></svg>